<?xml version="1.0" encoding="utf-8"?>
<!-- Generator: Adobe Illustrator 15.0.2, SVG Export Plug-In . SVG Version: 6.00 Build 0)  -->
<!DOCTYPE svg PUBLIC "-//W3C//DTD SVG 1.1//EN" "http://www.w3.org/Graphics/SVG/1.1/DTD/svg11.dtd">
<svg version="1.1" id="Layer_1" xmlns="http://www.w3.org/2000/svg" xmlns:xlink="http://www.w3.org/1999/xlink" x="0px" y="0px"
	 width="1008px" height="612px" viewBox="0 0 1008 612" enable-background="new 0 0 1008 612" xml:space="preserve">
<path fill="#FFFFFF" d="M65.494,30.647c-0.043-0.867-0.555-1.524-1.459-1.475c-0.342,0.019-0.656,0.139-0.982,0.245
	c-0.988,0.323-1.979,0.646-2.969,0.969c-1.502,0.49-3.004,0.98-4.506,1.471c-0.551,0.18-1.105,0.36-1.658,0.541
	c-0.158,0.052-0.316,0.104-0.475,0.155c-0.117,0.038-0.162,0.016-0.162,0.146c-0.033,4.888-2.297,9.611-6.08,12.712
	c2.709,0.311,5.484-0.056,8.018-1.073c2.551-1.023,4.846-2.707,6.639-4.787c2.023-2.349,3.496-5.412,3.631-8.549
	C65.494,30.883,65.498,30.766,65.494,30.647"/>
<path fill="#FFFFFF" d="M36.817,40.078c-0.306-0.426-0.521-1.005-0.285-1.511c0.189-0.403,0.607-0.685,1.017-0.825
	c0.142-0.049,0.285-0.094,0.427-0.14c0.959-0.313,1.918-0.626,2.878-0.939c2.957-0.966,5.916-1.931,8.873-2.896
	c1.012-0.33,2.023-0.661,3.033-0.99c0.174-0.057,0.346-0.113,0.518-0.17c0.086-0.027-0.035-1.19-0.045-1.321
	c-0.045-0.563-0.117-1.125-0.219-1.682c-0.785-4.302-3.314-8.182-6.914-10.661c-3.889-2.677-8.848-3.565-13.427-2.412
	c-2.01,0.506-3.919,1.396-5.602,2.605c-0.421,0.302-0.828,0.624-1.218,0.964c-0.062,0.129,0.127,0.501,0.169,0.622
	c0.096,0.281,0.197,0.56,0.301,0.838c0.008,0.022,0.062,0.12,0.044,0.14c-0.076,0.088-0.151,0.176-0.228,0.263
	c-1.152-2.356-2.475-4.636-3.978-6.788c-0.423-0.605-0.86-1.201-1.319-1.78c-0.178-0.224-0.347-0.559-0.639-0.617
	c-0.799-0.159-1.75,0.015-2.328,0.631c2.035,1.318,3.788,3.059,5.337,4.912c0.514,0.613,1.006,1.244,1.473,1.894
	c0.116,0.162,0.23,0.325,0.342,0.489c0.02,0.03,0.041,0.06,0.06,0.089c0.015,0.023-0.427,0.446-0.473,0.496
	c-3.552,3.799-5.12,9.152-4.197,14.265c0.922,5.113,4.305,9.586,8.957,11.891c5.316,2.633,11.797,2.169,16.69-1.178
	c0.393-0.27,0.773-0.555,1.139-0.856c-3.779-0.43-7.587-1.989-10.086-4.954C37.013,40.333,36.912,40.207,36.817,40.078"/>
</svg>
